# xmcd
#
# Track frame offsets: 
#        150
#        5064
#        18078
#        32118
#        36303
#        47643
#        59577
#        64815
#        69108
#        82824
#        91896
#        97350
#        110850
#        121920
#        128535
#        133584
#        141792
#        146112
#        159720
#        179970
#        190662
#
# Disc length: 2597 seconds
#
# Revision: 0
# Processed by: cddbd v1.5.2PL0 Copyright (c) Steve Scherf et al.
# Submitted via: ExactAudioCopy v0.95a4
#
DISCID=320a2315
DTITLE=Johnny Cash and the Tennessee Two - Country Style USA and Guest
DTITLE=Star
DYEAR=1959
DGENRE=Country
TTITLE0=Country Style USA Intro
TTITLE1=Hey Porter
TTITLE2=I Walk the Line
TTITLE3="Join the Reserve for Youth Training Program" spot
TTITLE4=Rock Island Line
TTITLE5=So Doggone Lonesome
TTITLE6=Country Style USA Outro
TTITLE7=Country Style USA Intro 2
TTITLE8=Folsom Prison Blues
TTITLE9=Cry Cry Cry
TTITLE10="Reserve for Youth Training Program" spot
TTITLE11=I Was There When It Happened
TTITLE12=Get Rhythm
TTITLE13=Country Style USA Outro 2
TTITLE14=Guest Star Intro
TTITLE15=Country Boy
TTITLE16=Chat with Johnny
TTITLE17=Don't Take Your Guns to Town
TTITLE18=Johnny Cash "Buy Savings Bonds" spot
TTITLE19=Swing Low, Sweet Chariot
TTITLE20=Guest Star Outro
EXTD=
EXTT0=
EXTT1=
EXTT2=
EXTT3=
EXTT4=
EXTT5=
EXTT6=
EXTT7=
EXTT8=
EXTT9=
EXTT10=
EXTT11=
EXTT12=
EXTT13=
EXTT14=
EXTT15=
EXTT16=
EXTT17=
EXTT18=
EXTT19=
EXTT20=
PLAYORDER=
